# xmcd
# 
# Track frame offsets:
#     150
#     29290
#     65030
#     95355
#     136630
#     148692
#     153700
#     194925
#     232520
# 
# Disc length: 3237
# 
# Revision: 6
# Processed by: cddbd v1.5.2PL0 Copyright (c) Steve Scherf et al.
# Submitted via: fre:ac v1.0.17
# 
DISCID=7a0ca309
DTITLE=Brian Blade - Perceptual
DYEAR=2000
DGENRE=Contemporary Jazz
TTITLE0=Perceptual
TTITLE1=Evinrude-Fifty (Trembling)
TTITLE2=Reconciliation
TTITLE3=Crooked Creek
TTITLE4=Patron Saint Of Girls
TTITLE5=The Sunday Boys (Improvisation)
TTITLE6=Variations Of A Bloodline  a. From The Same Blood  b. Fellowship (lLike Brothers)  c. Mustangs (Class Of 1988)
TTITLE7=Steadfast
TTITLE8=Trembling
EXTD=YEAR: 2000
EXTT0=
EXTT1=
EXTT2=
EXTT3=
EXTT4=
EXTT5=
EXTT6=
EXTT7=
EXTT8=
PLAYORDER=
